
                <svg id="trend-chart" width="660" height="400" title="Stack Overflow Trends Chart" version="1.1" xmlns="http://www.w3.org/2000/svg"><g></g><g class="chart-area" transform="translate(100, 20)"><g transform="translate(0,300)" fill="none" font-size="10" font-family="sans-serif" text-anchor="middle"><path class="domain" stroke="#000" d="M0.5,6V0.5H410.5V6"></path><g class="tick" opacity="1" transform="translate(19.265970515970515,0)"><line stroke="#000" y2="6" x1="0.5" x2="0.5"></line><text fill="#000" y="9" x="0.5" dy="0.71em" style="font-size: 12px;">2009</text></g><g class="tick" opacity="1" transform="translate(65.22727272727272,0)"><line stroke="#000" y2="6" x1="0.5" x2="0.5"></line><text fill="#000" y="9" x="0.5" dy="0.71em" style="font-size: 12px;">2010</text></g><g class="tick" opacity="1" transform="translate(111.18857493857494,0)"><line stroke="#000" y2="6" x1="0.5" x2="0.5"></line><text fill="#000" y="9" x="0.5" dy="0.71em" style="font-size: 12px;">2011</text></g><g class="tick" opacity="1" transform="translate(157.14987714987714,0)"><line stroke="#000" y2="6" x1="0.5" x2="0.5"></line><text fill="#000" y="9" x="0.5" dy="0.71em" style="font-size: 12px;">2012</text></g><g class="tick" opacity="1" transform="translate(203.23710073710072,0)"><line stroke="#000" y2="6" x1="0.5" x2="0.5"></line><text fill="#000" y="9" x="0.5" dy="0.71em" style="font-size: 12px;">2013</text></g><g class="tick" opacity="1" transform="translate(249.19840294840296,0)"><line stroke="#000" y2="6" x1="0.5" x2="0.5"></line><text fill="#000" y="9" x="0.5" dy="0.71em" style="font-size: 12px;">2014</text></g><g class="tick" opacity="1" transform="translate(295.15970515970514,0)"><line stroke="#000" y2="6" x1="0.5" x2="0.5"></line><text fill="#000" y="9" x="0.5" dy="0.71em" style="font-size: 12px;">2015</text></g><g class="tick" opacity="1" transform="translate(341.12100737100735,0)"><line stroke="#000" y2="6" x1="0.5" x2="0.5"></line><text fill="#000" y="9" x="0.5" dy="0.71em" style="font-size: 12px;">2016</text></g><g class="tick" opacity="1" transform="translate(387.20823095823096,0)"><line stroke="#000" y2="6" x1="0.5" x2="0.5"></line><text fill="#000" y="9" x="0.5" dy="0.71em" style="font-size: 12px;">2017</text></g></g><g class="grid-lines" transform="translate(0,300)" fill="none" font-size="10" font-family="sans-serif" text-anchor="middle"><path class="domain" stroke="#000" d="M0.5,-300V0.5H410.5V-300"></path><g class="tick" opacity="1" transform="translate(19.265970515970515,0)"><line stroke="#000" y2="-300" x1="0.5" x2="0.5" style="stroke: #ccc; fill: none;"></line></g><g class="tick" opacity="1" transform="translate(65.22727272727272,0)"><line stroke="#000" y2="-300" x1="0.5" x2="0.5" style="stroke: #ccc; fill: none;"></line></g><g class="tick" opacity="1" transform="translate(111.18857493857494,0)"><line stroke="#000" y2="-300" x1="0.5" x2="0.5" style="stroke: #ccc; fill: none;"></line></g><g class="tick" opacity="1" transform="translate(157.14987714987714,0)"><line stroke="#000" y2="-300" x1="0.5" x2="0.5" style="stroke: #ccc; fill: none;"></line></g><g class="tick" opacity="1" transform="translate(203.23710073710072,0)"><line stroke="#000" y2="-300" x1="0.5" x2="0.5" style="stroke: #ccc; fill: none;"></line></g><g class="tick" opacity="1" transform="translate(249.19840294840296,0)"><line stroke="#000" y2="-300" x1="0.5" x2="0.5" style="stroke: #ccc; fill: none;"></line></g><g class="tick" opacity="1" transform="translate(295.15970515970514,0)"><line stroke="#000" y2="-300" x1="0.5" x2="0.5" style="stroke: #ccc; fill: none;"></line></g><g class="tick" opacity="1" transform="translate(341.12100737100735,0)"><line stroke="#000" y2="-300" x1="0.5" x2="0.5" style="stroke: #ccc; fill: none;"></line></g><g class="tick" opacity="1" transform="translate(387.20823095823096,0)"><line stroke="#000" y2="-300" x1="0.5" x2="0.5" style="stroke: #ccc; fill: none;"></line></g></g><text x="205" y="360" class="axis-label x-axis-label" style="text-anchor: middle; font-weight: bold;">Year</text><g fill="none" font-size="10" font-family="sans-serif" text-anchor="end"><path class="domain" stroke="#000" d="M-6,300.5H0.5V0.5H-6"></path><g class="tick" opacity="1" transform="translate(0,300)"><line stroke="#000" x2="-6" y1="0.5" y2="0.5"></line><text fill="#000" x="-9" y="0.5" dy="0.32em" style="font-size: 12px;">0.00%</text></g><g class="tick" opacity="1" transform="translate(0,266.6666666666667)"><line stroke="#000" x2="-6" y1="0.5" y2="0.5"></line><text fill="#000" x="-9" y="0.5" dy="0.32em" style="font-size: 12px;">1.00%</text></g><g class="tick" opacity="1" transform="translate(0,233.33333333333331)"><line stroke="#000" x2="-6" y1="0.5" y2="0.5"></line><text fill="#000" x="-9" y="0.5" dy="0.32em" style="font-size: 12px;">2.00%</text></g><g class="tick" opacity="1" transform="translate(0,200)"><line stroke="#000" x2="-6" y1="0.5" y2="0.5"></line><text fill="#000" x="-9" y="0.5" dy="0.32em" style="font-size: 12px;">3.00%</text></g><g class="tick" opacity="1" transform="translate(0,166.66666666666666)"><line stroke="#000" x2="-6" y1="0.5" y2="0.5"></line><text fill="#000" x="-9" y="0.5" dy="0.32em" style="font-size: 12px;">4.00%</text></g><g class="tick" opacity="1" transform="translate(0,133.33333333333331)"><line stroke="#000" x2="-6" y1="0.5" y2="0.5"></line><text fill="#000" x="-9" y="0.5" dy="0.32em" style="font-size: 12px;">5.00%</text></g><g class="tick" opacity="1" transform="translate(0,100)"><line stroke="#000" x2="-6" y1="0.5" y2="0.5"></line><text fill="#000" x="-9" y="0.5" dy="0.32em" style="font-size: 12px;">6.00%</text></g><g class="tick" opacity="1" transform="translate(0,66.66666666666663)"><line stroke="#000" x2="-6" y1="0.5" y2="0.5"></line><text fill="#000" x="-9" y="0.5" dy="0.32em" style="font-size: 12px;">7.00%</text></g><g class="tick" opacity="1" transform="translate(0,33.333333333333314)"><line stroke="#000" x2="-6" y1="0.5" y2="0.5"></line><text fill="#000" x="-9" y="0.5" dy="0.32em" style="font-size: 12px;">8.00%</text></g><g class="tick" opacity="1" transform="translate(0,0)"><line stroke="#000" x2="-6" y1="0.5" y2="0.5"></line><text fill="#000" x="-9" y="0.5" dy="0.32em" style="font-size: 12px;">9.00%</text></g></g><g class="grid-lines" fill="none" font-size="10" font-family="sans-serif" text-anchor="end"><path class="domain" stroke="#000" d="M410,300.5H0.5V0.5H410"></path><g class="tick" opacity="1" transform="translate(0,300)"><line stroke="#000" x2="410" y1="0.5" y2="0.5" style="stroke: #ccc; fill: none;"></line></g><g class="tick" opacity="1" transform="translate(0,266.6666666666667)"><line stroke="#000" x2="410" y1="0.5" y2="0.5" style="stroke: #ccc; fill: none;"></line></g><g class="tick" opacity="1" transform="translate(0,233.33333333333331)"><line stroke="#000" x2="410" y1="0.5" y2="0.5" style="stroke: #ccc; fill: none;"></line></g><g class="tick" opacity="1" transform="translate(0,200)"><line stroke="#000" x2="410" y1="0.5" y2="0.5" style="stroke: #ccc; fill: none;"></line></g><g class="tick" opacity="1" transform="translate(0,166.66666666666666)"><line stroke="#000" x2="410" y1="0.5" y2="0.5" style="stroke: #ccc; fill: none;"></line></g><g class="tick" opacity="1" transform="translate(0,133.33333333333331)"><line stroke="#000" x2="410" y1="0.5" y2="0.5" style="stroke: #ccc; fill: none;"></line></g><g class="tick" opacity="1" transform="translate(0,100)"><line stroke="#000" x2="410" y1="0.5" y2="0.5" style="stroke: #ccc; fill: none;"></line></g><g class="tick" opacity="1" transform="translate(0,66.66666666666663)"><line stroke="#000" x2="410" y1="0.5" y2="0.5" style="stroke: #ccc; fill: none;"></line></g><g class="tick" opacity="1" transform="translate(0,33.333333333333314)"><line stroke="#000" x2="410" y1="0.5" y2="0.5" style="stroke: #ccc; fill: none;"></line></g><g class="tick" opacity="1" transform="translate(0,0)"><line stroke="#000" x2="410" y1="0.5" y2="0.5" style="stroke: #ccc; fill: none;"></line></g></g><g class="lines"><path class="line" d="M3.9035626535626538,299.541L7.681203931203931,300L11.584766584766585,300L15.362407862407862,299.18833333333333L19.265970515970515,299.79366666666664L23.16953316953317,299.8136666666667L26.695331695331696,299.6793333333333L30.598894348894348,300L34.37653562653563,300L38.28009828009828,300L42.05773955773956,299.6963333333333L45.96130221130221,299.8996666666667L49.86486486486487,299.20233333333334L53.64250614250615,299.5466666666667L57.546068796068795,299.4873333333333L61.323710073710075,299.56466666666665L65.22727272727272,299.34L69.13083538083539,299.70633333333336L72.65663390663391,299.3063333333333L76.56019656019656,299.67133333333334L80.33783783783784,299.6836666666667L84.2414004914005,299.88233333333335L88.01904176904176,299.838L91.92260442260442,299.8453333333333L95.82616707616708,299.8926666666667L99.60380835380836,299.794L103.50737100737102,299.576L107.2850122850123,299.623L111.18857493857494,299.877L115.09213759213759,299.921L118.61793611793611,299.61066666666665L122.52149877149877,299.55566666666664L126.29914004914005,299.576L130.20270270270268,299.67033333333336L133.98034398034397,299.7076666666667L137.88390663390663,299.7253333333333L141.7874692874693,299.5516666666667L145.5651105651106,299.22566666666665L149.46867321867322,298.82966666666664L153.2463144963145,299.3066666666667L157.14987714987714,299.1843333333333L161.0534398034398,299.6053333333333L164.7051597051597,299.5133333333333L168.60872235872236,299.39366666666666L172.38636363636365,298.98266666666666L176.28992628992629,299.5013333333333L180.06756756756758,299.65633333333335L183.9711302211302,299.35366666666664L187.87469287469287,298.8623333333333L191.65233415233416,299.32466666666664L195.5558968058968,297.3933333333333L199.3335380835381,299.18066666666664L203.23710073710072,299.42333333333335L207.1406633906634,299.49533333333335L210.66646191646188,299.25533333333334L214.5700245700246,299.37666666666667L218.34766584766584,298.984L222.25122850122852,299.32233333333335L226.02886977886976,299.22633333333334L229.93243243243245,299.425L233.8359950859951,299.40866666666665L237.61363636363637,299.3806666666667L241.51719901719903,299.22266666666667L245.2948402948403,299.073L249.19840294840296,299.206L253.10196560196562,299.20233333333334L256.6277641277641,299.4986666666667L260.5313267813268,299.23L264.3089680589681,299.02233333333334L268.21253071253074,299.0403333333333L271.99017199017203,298.9533333333333L275.89373464373466,299.1243333333333L279.7972972972973,299.157L283.5749385749386,298.87033333333335L287.4785012285012,299.1603333333333L291.2561425061425,298.952L295.15970515970514,299.176L299.0632678132678,299.1863333333333L302.58906633906633,299.21L306.492628992629,298.6933333333333L310.27027027027026,299.1213333333333L314.17383292383295,299.27066666666667L317.95147420147424,299.215L321.8550368550369,299.51433333333335L325.7585995085995,299.248L329.5362407862408,299.37033333333335L333.4398034398034,299.37766666666664L337.2174447174447,299.16833333333335L341.12100737100735,299.47833333333335L345.02457002457004,299.37766666666664L348.67628992628994,299.06333333333333L352.57985257985257,299.17266666666666L356.35749385749386,299.17566666666664L360.2610565110565,299.118L364.0386977886978,299.1723333333333L367.9422604422604,299.2336666666667L371.8458230958231,299.14866666666666L375.62346437346434,299.219L379.52702702702703,299.123L383.3046683046683,299.13366666666667L387.20823095823096,298.974L391.1117936117936,299.3793333333333L394.63759213759215,299.267L398.5411547911548,299.019L402.3187960687961,299.04766666666666L406.2223587223587,299.196L410,299.25466666666665" data-legend="octave" style="stroke: rgb(31, 119, 180); fill: none;"></path><path class="line" d="M3.9035626535626538,299.541L7.681203931203931,299.77666666666664L11.584766584766585,299.743L15.362407862407862,300L19.265970515970515,300L23.16953316953317,299.627L26.695331695331696,299.8396666666667L30.598894348894348,299.84633333333335L34.37653562653563,299.49066666666664L38.28009828009828,299.65166666666664L42.05773955773956,299.291L45.96130221130221,299.397L49.86486486486487,298.8036666666667L53.64250614250615,298.27733333333333L57.546068796068795,299.231L61.323710073710075,299.39033333333333L65.22727272727272,299.78L69.13083538083539,299.11833333333334L72.65663390663391,299.3693333333333L76.56019656019656,299.1446666666667L80.33783783783784,299.24033333333335L84.2414004914005,299.1743333333333L88.01904176904176,299.4053333333333L91.92260442260442,298.91566666666665L95.82616707616708,299.0876666666667L99.60380835380836,298.14566666666667L103.50737100737102,296.653L107.2850122850123,298.161L111.18857493857494,297.16633333333334L115.09213759213759,296.523L118.61793611793611,296.39666666666665L122.52149877149877,295.83L126.29914004914005,295.92266666666666L130.20270270270268,295.28266666666667L133.98034398034397,296.002L137.88390663390663,296.85633333333334L141.7874692874693,295.83633333333336L145.5651105651106,295.90133333333335L149.46867321867322,296.249L153.2463144963145,294.54633333333334L157.14987714987714,295.9483333333333L161.0534398034398,299.10566666666665L164.7051597051597,299.22133333333335L168.60872235872236,299.065L172.38636363636365,299.17633333333333L176.28992628992629,299.177L180.06756756756758,299.47266666666667L183.9711302211302,299.42266666666666L187.87469287469287,299.10966666666667L191.65233415233416,298.976L195.5558968058968,299.18266666666665L199.3335380835381,299.08433333333335L203.23710073710072,299.238L207.1406633906634,299.2006666666667L210.66646191646188,299.311L214.5700245700246,299.074L218.34766584766584,299.2966666666667L222.25122850122852,299.09633333333335L226.02886977886976,299.5763333333333L229.93243243243245,299.38666666666666L233.8359950859951,299.3693333333333L237.61363636363637,299.487L241.51719901719903,299.38933333333335L245.2948402948403,299.586L249.19840294840296,299.4823333333333L253.10196560196562,299.58366666666666L256.6277641277641,299.45166666666665L260.5313267813268,299.56466666666665L264.3089680589681,299.6313333333333L268.21253071253074,299.5403333333333L271.99017199017203,299.3206666666667L275.89373464373466,299.602L279.7972972972973,299.47066666666666L283.5749385749386,299.473L287.4785012285012,299.53133333333335L291.2561425061425,299.3503333333333L295.15970515970514,299.549L299.0632678132678,299.57366666666667L302.58906633906633,299.38166666666666L306.492628992629,299.4843333333333L310.27027027027026,299.385L314.17383292383295,299.60066666666665L317.95147420147424,299.69933333333336L321.8550368550369,299.71233333333333L325.7585995085995,299.725L329.5362407862408,299.8426666666667L333.4398034398034,299.872L337.2174447174447,299.58433333333335L341.12100737100735,299.64033333333333L345.02457002457004,299.706L348.67628992628994,299.58033333333333L352.57985257985257,299.57L356.35749385749386,299.5706666666667L360.2610565110565,299.753L364.0386977886978,299.63233333333335L367.9422604422604,299.77866666666665L371.8458230958231,299.633L375.62346437346434,299.70733333333334L379.52702702702703,299.7076666666667L383.3046683046683,299.69966666666664L387.20823095823096,299.642L391.1117936117936,299.77133333333336L394.63759213759215,299.69L398.5411547911548,299.6363333333333L402.3187960687961,299.6673333333333L406.2223587223587,299.6533333333333L410,299.7416666666667" data-legend="wolfram-mathematica" style="stroke: rgb(255, 127, 14); fill: none;"></path><path class="line" d="M3.9035626535626538,297.2456666666667L7.681203931203931,295.08666666666664L11.584766584766585,297.17L15.362407862407862,296.4816666666667L19.265970515970515,296.07666666666665L23.16953316953317,294.96366666666665L26.695331695331696,296.14933333333335L30.598894348894348,295.082L34.37653562653563,294.64866666666666L38.28009828009828,294.88933333333335L42.05773955773956,296.0486666666667L45.96130221130221,296.58166666666665L49.86486486486487,294.915L53.64250614250615,293.56233333333336L57.546068796068795,289.91633333333334L61.323710073710075,291.2L65.22727272727272,293.179L69.13083538083539,291.84233333333333L72.65663390663391,292.24L76.56019656019656,287.6956666666667L80.33783783783784,286.82866666666666L84.2414004914005,291.3283333333333L88.01904176904176,291.78L91.92260442260442,292.71733333333333L95.82616707616708,291.035L99.60380835380836,291.49966666666666L103.50737100737102,292.552L107.2850122850123,291.559L111.18857493857494,292.73066666666665L115.09213759213759,288.423L118.61793611793611,286.0083333333333L122.52149877149877,286.806L126.29914004914005,289.98566666666665L130.20270270270268,289.6743333333333L133.98034398034397,290.704L137.88390663390663,292.12533333333334L141.7874692874693,291.448L145.5651105651106,287.026L149.46867321867322,286.97633333333334L153.2463144963145,287.61133333333333L157.14987714987714,286.9723333333333L161.0534398034398,285.2916666666667L164.7051597051597,285.8826666666667L168.60872235872236,284.22933333333333L172.38636363636365,286.8693333333333L176.28992628992629,286.8793333333333L180.06756756756758,287.0686666666667L183.9711302211302,286.144L187.87469287469287,286.29833333333335L191.65233415233416,283.5276666666667L195.5558968058968,281.15566666666666L199.3335380835381,283.7056666666667L203.23710073710072,284.90166666666664L207.1406633906634,282.664L210.66646191646188,281.136L214.5700245700246,279.798L218.34766584766584,279.9103333333333L222.25122850122852,281.3256666666667L226.02886977886976,281.6093333333333L229.93243243243245,282.43966666666665L233.8359950859951,282.258L237.61363636363637,280.1813333333333L241.51719901719903,277.5303333333333L245.2948402948403,278.992L249.19840294840296,280.59866666666665L253.10196560196562,278.36766666666665L256.6277641277641,277.4746666666667L260.5313267813268,276.0563333333333L264.3089680589681,276.64366666666666L268.21253071253074,279.24033333333335L271.99017199017203,279.40933333333334L275.89373464373466,281.466L279.7972972972973,278.84133333333335L283.5749385749386,276.615L287.4785012285012,275.644L291.2561425061425,278.745L295.15970515970514,279.965L299.0632678132678,276.76433333333335L302.58906633906633,276.0366666666667L306.492628992629,273.52166666666665L310.27027027027026,275.2733333333333L314.17383292383295,278.621L317.95147420147424,281.03866666666664L321.8550368550369,281.4433333333333L325.7585995085995,282.625L329.5362407862408,281.31333333333333L333.4398034398034,279.27166666666665L337.2174447174447,283.211L341.12100737100735,283.04966666666667L345.02457002457004,281.269L348.67628992628994,279.72866666666664L352.57985257985257,281.29766666666666L356.35749385749386,280.161L360.2610565110565,282.1793333333333L364.0386977886978,283.3136666666667L367.9422604422604,283.327L371.8458230958231,283.78933333333333L375.62346437346434,282.9463333333333L379.52702702702703,284.3713333333333L383.3046683046683,284.65233333333333L387.20823095823096,285.162L391.1117936117936,284.299L394.63759213759215,282.58733333333333L398.5411547911548,281.72266666666667L402.3187960687961,282.29266666666666L406.2223587223587,285.71633333333335L410,286.629" data-legend="matlab" style="stroke: rgb(44, 160, 44); fill: none;"></path><path class="line" d="M3.9035626535626538,174.673L7.681203931203931,185.204L11.584766584766585,183.19466666666668L15.362407862407862,179.8313333333333L19.265970515970515,169.07866666666666L23.16953316953317,181.92533333333333L26.695331695331696,176.775L30.598894348894348,181.8143333333333L34.37653562653563,172.45666666666665L38.28009828009828,178.62133333333333L42.05773955773956,181.35433333333333L45.96130221130221,184.97433333333333L49.86486486486487,183.03933333333333L53.64250614250615,170.51500000000001L57.546068796068795,165.83266666666668L61.323710073710075,161.202L65.22727272727272,156.46299999999997L69.13083538083539,162.34533333333331L72.65663390663391,168.83700000000002L76.56019656019656,180.17933333333332L80.33783783783784,171.83166666666668L84.2414004914005,168.86133333333333L88.01904176904176,158.475L91.92260442260442,170.51166666666666L95.82616707616708,178.40833333333336L99.60380835380836,161.57066666666665L103.50737100737102,176.114L107.2850122850123,182.01033333333334L111.18857493857494,180.07399999999998L115.09213759213759,180.079L118.61793611793611,177.44866666666667L122.52149877149877,185.01166666666666L126.29914004914005,184.3263333333333L130.20270270270268,184.7663333333333L133.98034398034397,179.89733333333334L137.88390663390663,182.33466666666666L141.7874692874693,186.96633333333335L145.5651105651106,182.26433333333333L149.46867321867322,183.0263333333333L153.2463144963145,185.09466666666668L157.14987714987714,180.78066666666666L161.0534398034398,181.04166666666666L164.7051597051597,176.47299999999998L168.60872235872236,174.66833333333332L172.38636363636365,175.45233333333334L176.28992628992629,167.72033333333334L180.06756756756758,167.56566666666666L183.9711302211302,163.93333333333334L187.87469287469287,169.11633333333333L191.65233415233416,165.432L195.5558968058968,158.01466666666667L199.3335380835381,160.31466666666668L203.23710073710072,163.269L207.1406633906634,156.43L210.66646191646188,156.27566666666667L214.5700245700246,148.6833333333333L218.34766584766584,145.9453333333333L222.25122850122852,142.61333333333334L226.02886977886976,140.32399999999998L229.93243243243245,146.90066666666664L233.8359950859951,141.977L237.61363636363637,130.904L241.51719901719903,122.94266666666664L245.2948402948403,131.83633333333336L249.19840294840296,128.94133333333332L253.10196560196562,127.11433333333335L256.6277641277641,119.63866666666667L260.5313267813268,118.07633333333334L264.3089680589681,127.52100000000002L268.21253071253074,120.36066666666667L271.99017199017203,116.09766666666667L275.89373464373466,117.12866666666667L279.7972972972973,126.17899999999997L283.5749385749386,117.588L287.4785012285012,110.97033333333334L291.2561425061425,108.59866666666665L295.15970515970514,107.98933333333332L299.0632678132678,100.68433333333334L302.58906633906633,98.84300000000002L306.492628992629,101.44566666666668L310.27027027027026,101.14899999999997L314.17383292383295,93.243L317.95147420147424,92.31000000000003L321.8550368550369,96.1823333333333L325.7585995085995,96.98533333333336L329.5362407862408,79.326L333.4398034398034,72.702L337.2174447174447,78.24166666666665L341.12100737100735,75.488L345.02457002457004,68.67133333333331L348.67628992628994,70.32499999999999L352.57985257985257,71.31633333333332L356.35749385749386,72.49433333333334L360.2610565110565,69.565L364.0386977886978,61.09166666666664L367.9422604422604,70.18800000000002L371.8458230958231,73.29933333333332L375.62346437346434,58.091333333333296L379.52702702702703,44.52733333333333L383.3046683046683,46.83100000000002L387.20823095823096,45.56833333333333L391.1117936117936,32.018666666666604L394.63759213759215,31.88633333333331L398.5411547911548,24.24000000000001L402.3187960687961,27.342333333333386L406.2223587223587,16.926333333333332L410,5.89766666666668" data-legend="python" style="stroke: rgb(214, 39, 40); fill: none;"></path></g></g><g transform="translate(20, 150)"><text transform="rotate(-90)" x="-50" y="0" dy="1em" class="axis-label y-axis-label" style="text-anchor: middle; font-weight: bold;">% of Stack Overflow questions that month</text></g><g class="legend" transform="translate(530, 30)" style="font-size: 12px;"><text class="legend-title" style="font-weight: bold;">Tag</text><g class="legend-items" transform="translate(0,20)"><text y="0em" x="1em">python</text><text y="1em" x="1em">matlab</text><text y="2em" x="1em">wolfram-mathematica</text><text y="3em" x="1em">octave</text><circle cy="-0.25em" cx="0" r="0.4em" style="fill: rgb(214, 39, 40);"></circle><circle cy="0.75em" cx="0" r="0.4em" style="fill: rgb(44, 160, 44);"></circle><circle cy="1.75em" cx="0" r="0.4em" style="fill: rgb(255, 127, 14);"></circle><circle cy="2.75em" cx="0" r="0.4em" style="fill: rgb(31, 119, 180);"></circle></g><rect class="legend-box"></rect></g></svg>
            