
                <svg id="trend-chart" width="660" height="400" title="Stack Overflow Trends Chart" version="1.1" xmlns="http://www.w3.org/2000/svg"><g></g><g class="chart-area" transform="translate(100, 20)"><g transform="translate(0,300)" fill="none" font-size="10" font-family="sans-serif" text-anchor="middle"><path class="domain" stroke="#000" d="M0.5,6V0.5H410.5V6"></path><g class="tick" opacity="1" transform="translate(19.265970515970515,0)"><line stroke="#000" y2="6" x1="0.5" x2="0.5"></line><text fill="#000" y="9" x="0.5" dy="0.71em" style="font-size: 12px;">2009</text></g><g class="tick" opacity="1" transform="translate(65.22727272727272,0)"><line stroke="#000" y2="6" x1="0.5" x2="0.5"></line><text fill="#000" y="9" x="0.5" dy="0.71em" style="font-size: 12px;">2010</text></g><g class="tick" opacity="1" transform="translate(111.18857493857494,0)"><line stroke="#000" y2="6" x1="0.5" x2="0.5"></line><text fill="#000" y="9" x="0.5" dy="0.71em" style="font-size: 12px;">2011</text></g><g class="tick" opacity="1" transform="translate(157.14987714987714,0)"><line stroke="#000" y2="6" x1="0.5" x2="0.5"></line><text fill="#000" y="9" x="0.5" dy="0.71em" style="font-size: 12px;">2012</text></g><g class="tick" opacity="1" transform="translate(203.23710073710072,0)"><line stroke="#000" y2="6" x1="0.5" x2="0.5"></line><text fill="#000" y="9" x="0.5" dy="0.71em" style="font-size: 12px;">2013</text></g><g class="tick" opacity="1" transform="translate(249.19840294840296,0)"><line stroke="#000" y2="6" x1="0.5" x2="0.5"></line><text fill="#000" y="9" x="0.5" dy="0.71em" style="font-size: 12px;">2014</text></g><g class="tick" opacity="1" transform="translate(295.15970515970514,0)"><line stroke="#000" y2="6" x1="0.5" x2="0.5"></line><text fill="#000" y="9" x="0.5" dy="0.71em" style="font-size: 12px;">2015</text></g><g class="tick" opacity="1" transform="translate(341.12100737100735,0)"><line stroke="#000" y2="6" x1="0.5" x2="0.5"></line><text fill="#000" y="9" x="0.5" dy="0.71em" style="font-size: 12px;">2016</text></g><g class="tick" opacity="1" transform="translate(387.20823095823096,0)"><line stroke="#000" y2="6" x1="0.5" x2="0.5"></line><text fill="#000" y="9" x="0.5" dy="0.71em" style="font-size: 12px;">2017</text></g></g><g class="grid-lines" transform="translate(0,300)" fill="none" font-size="10" font-family="sans-serif" text-anchor="middle"><path class="domain" stroke="#000" d="M0.5,-300V0.5H410.5V-300"></path><g class="tick" opacity="1" transform="translate(19.265970515970515,0)"><line stroke="#000" y2="-300" x1="0.5" x2="0.5" style="stroke: #ccc; fill: none;"></line></g><g class="tick" opacity="1" transform="translate(65.22727272727272,0)"><line stroke="#000" y2="-300" x1="0.5" x2="0.5" style="stroke: #ccc; fill: none;"></line></g><g class="tick" opacity="1" transform="translate(111.18857493857494,0)"><line stroke="#000" y2="-300" x1="0.5" x2="0.5" style="stroke: #ccc; fill: none;"></line></g><g class="tick" opacity="1" transform="translate(157.14987714987714,0)"><line stroke="#000" y2="-300" x1="0.5" x2="0.5" style="stroke: #ccc; fill: none;"></line></g><g class="tick" opacity="1" transform="translate(203.23710073710072,0)"><line stroke="#000" y2="-300" x1="0.5" x2="0.5" style="stroke: #ccc; fill: none;"></line></g><g class="tick" opacity="1" transform="translate(249.19840294840296,0)"><line stroke="#000" y2="-300" x1="0.5" x2="0.5" style="stroke: #ccc; fill: none;"></line></g><g class="tick" opacity="1" transform="translate(295.15970515970514,0)"><line stroke="#000" y2="-300" x1="0.5" x2="0.5" style="stroke: #ccc; fill: none;"></line></g><g class="tick" opacity="1" transform="translate(341.12100737100735,0)"><line stroke="#000" y2="-300" x1="0.5" x2="0.5" style="stroke: #ccc; fill: none;"></line></g><g class="tick" opacity="1" transform="translate(387.20823095823096,0)"><line stroke="#000" y2="-300" x1="0.5" x2="0.5" style="stroke: #ccc; fill: none;"></line></g></g><text x="205" y="360" class="axis-label x-axis-label" style="text-anchor: middle; font-weight: bold;">Year</text><g fill="none" font-size="10" font-family="sans-serif" text-anchor="end"><path class="domain" stroke="#000" d="M-6,300.5H0.5V0.5H-6"></path><g class="tick" opacity="1" transform="translate(0,300)"><line stroke="#000" x2="-6" y1="0.5" y2="0.5"></line><text fill="#000" x="-9" y="0.5" dy="0.32em" style="font-size: 12px;">0.00%</text></g><g class="tick" opacity="1" transform="translate(0,272.72727272727275)"><line stroke="#000" x2="-6" y1="0.5" y2="0.5"></line><text fill="#000" x="-9" y="0.5" dy="0.32em" style="font-size: 12px;">1.00%</text></g><g class="tick" opacity="1" transform="translate(0,245.45454545454544)"><line stroke="#000" x2="-6" y1="0.5" y2="0.5"></line><text fill="#000" x="-9" y="0.5" dy="0.32em" style="font-size: 12px;">2.00%</text></g><g class="tick" opacity="1" transform="translate(0,218.1818181818182)"><line stroke="#000" x2="-6" y1="0.5" y2="0.5"></line><text fill="#000" x="-9" y="0.5" dy="0.32em" style="font-size: 12px;">3.00%</text></g><g class="tick" opacity="1" transform="translate(0,190.9090909090909)"><line stroke="#000" x2="-6" y1="0.5" y2="0.5"></line><text fill="#000" x="-9" y="0.5" dy="0.32em" style="font-size: 12px;">4.00%</text></g><g class="tick" opacity="1" transform="translate(0,163.63636363636363)"><line stroke="#000" x2="-6" y1="0.5" y2="0.5"></line><text fill="#000" x="-9" y="0.5" dy="0.32em" style="font-size: 12px;">5.00%</text></g><g class="tick" opacity="1" transform="translate(0,136.36363636363637)"><line stroke="#000" x2="-6" y1="0.5" y2="0.5"></line><text fill="#000" x="-9" y="0.5" dy="0.32em" style="font-size: 12px;">6.00%</text></g><g class="tick" opacity="1" transform="translate(0,109.09090909090907)"><line stroke="#000" x2="-6" y1="0.5" y2="0.5"></line><text fill="#000" x="-9" y="0.5" dy="0.32em" style="font-size: 12px;">7.00%</text></g><g class="tick" opacity="1" transform="translate(0,81.81818181818181)"><line stroke="#000" x2="-6" y1="0.5" y2="0.5"></line><text fill="#000" x="-9" y="0.5" dy="0.32em" style="font-size: 12px;">8.00%</text></g><g class="tick" opacity="1" transform="translate(0,54.54545454545456)"><line stroke="#000" x2="-6" y1="0.5" y2="0.5"></line><text fill="#000" x="-9" y="0.5" dy="0.32em" style="font-size: 12px;">9.00%</text></g><g class="tick" opacity="1" transform="translate(0,27.272727272727252)"><line stroke="#000" x2="-6" y1="0.5" y2="0.5"></line><text fill="#000" x="-9" y="0.5" dy="0.32em" style="font-size: 12px;">10.00%</text></g><g class="tick" opacity="1" transform="translate(0,0)"><line stroke="#000" x2="-6" y1="0.5" y2="0.5"></line><text fill="#000" x="-9" y="0.5" dy="0.32em" style="font-size: 12px;">11.00%</text></g></g><g class="grid-lines" fill="none" font-size="10" font-family="sans-serif" text-anchor="end"><path class="domain" stroke="#000" d="M410,300.5H0.5V0.5H410"></path><g class="tick" opacity="1" transform="translate(0,300)"><line stroke="#000" x2="410" y1="0.5" y2="0.5" style="stroke: #ccc; fill: none;"></line></g><g class="tick" opacity="1" transform="translate(0,272.72727272727275)"><line stroke="#000" x2="410" y1="0.5" y2="0.5" style="stroke: #ccc; fill: none;"></line></g><g class="tick" opacity="1" transform="translate(0,245.45454545454544)"><line stroke="#000" x2="410" y1="0.5" y2="0.5" style="stroke: #ccc; fill: none;"></line></g><g class="tick" opacity="1" transform="translate(0,218.1818181818182)"><line stroke="#000" x2="410" y1="0.5" y2="0.5" style="stroke: #ccc; fill: none;"></line></g><g class="tick" opacity="1" transform="translate(0,190.9090909090909)"><line stroke="#000" x2="410" y1="0.5" y2="0.5" style="stroke: #ccc; fill: none;"></line></g><g class="tick" opacity="1" transform="translate(0,163.63636363636363)"><line stroke="#000" x2="410" y1="0.5" y2="0.5" style="stroke: #ccc; fill: none;"></line></g><g class="tick" opacity="1" transform="translate(0,136.36363636363637)"><line stroke="#000" x2="410" y1="0.5" y2="0.5" style="stroke: #ccc; fill: none;"></line></g><g class="tick" opacity="1" transform="translate(0,109.09090909090907)"><line stroke="#000" x2="410" y1="0.5" y2="0.5" style="stroke: #ccc; fill: none;"></line></g><g class="tick" opacity="1" transform="translate(0,81.81818181818181)"><line stroke="#000" x2="410" y1="0.5" y2="0.5" style="stroke: #ccc; fill: none;"></line></g><g class="tick" opacity="1" transform="translate(0,54.54545454545456)"><line stroke="#000" x2="410" y1="0.5" y2="0.5" style="stroke: #ccc; fill: none;"></line></g><g class="tick" opacity="1" transform="translate(0,27.272727272727252)"><line stroke="#000" x2="410" y1="0.5" y2="0.5" style="stroke: #ccc; fill: none;"></line></g><g class="tick" opacity="1" transform="translate(0,0)"><line stroke="#000" x2="410" y1="0.5" y2="0.5" style="stroke: #ccc; fill: none;"></line></g></g><g class="lines"><path class="line" d="M3.9035626535626538,299.62445454545457L7.681203931203931,300L11.584766584766585,300L15.362407862407862,299.33590909090907L19.265970515970515,299.8311818181818L23.16953316953317,299.84754545454547L26.695331695331696,299.73763636363634L30.598894348894348,300L34.37653562653563,300L38.28009828009828,300L42.05773955773956,299.75154545454546L45.96130221130221,299.91790909090906L49.86486486486487,299.34736363636364L53.64250614250615,299.6290909090909L57.546068796068795,299.5805454545455L61.323710073710075,299.6438181818182L65.22727272727272,299.46L69.13083538083539,299.7597272727273L72.65663390663391,299.43245454545456L76.56019656019656,299.7310909090909L80.33783783783784,299.7411818181818L84.2414004914005,299.9037272727273L88.01904176904176,299.86745454545456L91.92260442260442,299.87345454545454L95.82616707616708,299.9121818181818L99.60380835380836,299.83145454545456L103.50737100737102,299.6530909090909L107.2850122850123,299.69154545454546L111.18857493857494,299.89936363636366L115.09213759213759,299.93536363636366L118.61793611793611,299.6814545454545L122.52149877149877,299.63645454545457L126.29914004914005,299.6530909090909L130.20270270270268,299.73027272727273L133.98034398034397,299.7608181818182L137.88390663390663,299.77527272727275L141.7874692874693,299.6331818181818L145.5651105651106,299.36645454545453L149.46867321867322,299.0424545454545L153.2463144963145,299.4327272727273L157.14987714987714,299.33263636363637L161.0534398034398,299.6770909090909L164.7051597051597,299.6018181818182L168.60872235872236,299.5039090909091L172.38636363636365,299.16763636363635L176.28992628992629,299.592L180.06756756756758,299.71881818181816L183.9711302211302,299.47118181818183L187.87469287469287,299.06918181818185L191.65233415233416,299.44745454545455L195.5558968058968,297.86727272727273L199.3335380835381,299.3296363636364L203.23710073710072,299.5281818181818L207.1406633906634,299.58709090909093L210.66646191646188,299.39072727272725L214.5700245700246,299.49L218.34766584766584,299.16872727272727L222.25122850122852,299.4455454545455L226.02886977886976,299.367L229.93243243243245,299.5295454545454L233.8359950859951,299.5161818181818L237.61363636363637,299.4932727272727L241.51719901719903,299.364L245.2948402948403,299.2415454545455L249.19840294840296,299.3503636363636L253.10196560196562,299.34736363636364L256.6277641277641,299.5898181818182L260.5313267813268,299.37L264.3089680589681,299.20009090909093L268.21253071253074,299.2148181818182L271.99017199017203,299.14363636363635L275.89373464373466,299.28354545454545L279.7972972972973,299.3102727272727L283.5749385749386,299.07572727272725L287.4785012285012,299.313L291.2561425061425,299.1425454545454L295.15970515970514,299.3258181818182L299.0632678132678,299.3342727272727L302.58906633906633,299.3536363636364L306.492628992629,298.9309090909091L310.27027027027026,299.2810909090909L314.17383292383295,299.40327272727274L317.95147420147424,299.3577272727273L321.8550368550369,299.60263636363635L325.7585995085995,299.3847272727273L329.5362407862408,299.4848181818182L333.4398034398034,299.49081818181816L337.2174447174447,299.31954545454545L341.12100737100735,299.5731818181818L345.02457002457004,299.49081818181816L348.67628992628994,299.2336363636364L352.57985257985257,299.3230909090909L356.35749385749386,299.3255454545455L360.2610565110565,299.2783636363636L364.0386977886978,299.3228181818182L367.9422604422604,299.373L371.8458230958231,299.30345454545454L375.62346437346434,299.361L379.52702702702703,299.2824545454545L383.3046683046683,299.2911818181818L387.20823095823096,299.16054545454546L391.1117936117936,299.4921818181818L394.63759213759215,299.40027272727275L398.5411547911548,299.19736363636366L402.3187960687961,299.2208181818182L406.2223587223587,299.3421818181818L410,299.3901818181818" data-legend="octave" style="stroke: rgb(31, 119, 180); fill: none;"></path><path class="line" d="M3.9035626535626538,299.62445454545457L7.681203931203931,299.8172727272727L11.584766584766585,299.78972727272725L15.362407862407862,300L19.265970515970515,300L23.16953316953317,299.69481818181816L26.695331695331696,299.8688181818182L30.598894348894348,299.87427272727274L34.37653562653563,299.58327272727274L38.28009828009828,299.715L42.05773955773956,299.4199090909091L45.96130221130221,299.50663636363635L49.86486486486487,299.02118181818184L53.64250614250615,298.59054545454546L57.546068796068795,299.3708181818182L61.323710073710075,299.5011818181818L65.22727272727272,299.82L69.13083538083539,299.27863636363634L72.65663390663391,299.484L76.56019656019656,299.30018181818184L80.33783783783784,299.37845454545453L84.2414004914005,299.32445454545456L88.01904176904176,299.5134545454545L91.92260442260442,299.11281818181817L95.82616707616708,299.2535454545455L99.60380835380836,298.4828181818182L103.50737100737102,297.26154545454546L107.2850122850123,298.49536363636366L111.18857493857494,297.68154545454547L115.09213759213759,297.1551818181818L118.61793611793611,297.0518181818182L122.52149877149877,296.5881818181818L126.29914004914005,296.664L130.20270270270268,296.14036363636365L133.98034398034397,296.7289090909091L137.88390663390663,297.4279090909091L141.7874692874693,296.5933636363636L145.5651105651106,296.64654545454545L149.46867321867322,296.931L153.2463144963145,295.53790909090907L157.14987714987714,296.685L161.0534398034398,299.26827272727274L164.7051597051597,299.3629090909091L168.60872235872236,299.235L172.38636363636365,299.3260909090909L176.28992628992629,299.32663636363634L180.06756756756758,299.5685454545455L183.9711302211302,299.52763636363636L187.87469287469287,299.27154545454545L191.65233415233416,299.1621818181818L195.5558968058968,299.33127272727273L199.3335380835381,299.2508181818182L203.23710073710072,299.37654545454546L207.1406633906634,299.346L210.66646191646188,299.43627272727275L214.5700245700246,299.2423636363636L218.34766584766584,299.42454545454547L222.25122850122852,299.26063636363637L226.02886977886976,299.6533636363636L229.93243243243245,299.4981818181818L233.8359950859951,299.484L237.61363636363637,299.5802727272727L241.51719901719903,299.50036363636366L245.2948402948403,299.6612727272727L249.19840294840296,299.57645454545457L253.10196560196562,299.65936363636365L256.6277641277641,299.55136363636365L260.5313267813268,299.6438181818182L264.3089680589681,299.69836363636364L268.21253071253074,299.6239090909091L271.99017199017203,299.44418181818185L275.89373464373466,299.67436363636364L279.7972972972973,299.56690909090906L283.5749385749386,299.5688181818182L287.4785012285012,299.6165454545455L291.2561425061425,299.46845454545456L295.15970515970514,299.631L299.0632678132678,299.65118181818184L302.58906633906633,299.4940909090909L306.492628992629,299.5780909090909L310.27027027027026,299.4968181818182L314.17383292383295,299.6732727272727L317.95147420147424,299.754L321.8550368550369,299.7646363636364L325.7585995085995,299.775L329.5362407862408,299.87127272727275L333.4398034398034,299.89527272727275L337.2174447174447,299.6599090909091L341.12100737100735,299.70572727272724L345.02457002457004,299.75945454545456L348.67628992628994,299.6566363636364L352.57985257985257,299.6481818181818L356.35749385749386,299.6487272727273L360.2610565110565,299.7979090909091L364.0386977886978,299.69918181818184L367.9422604422604,299.8189090909091L371.8458230958231,299.6997272727273L375.62346437346434,299.7605454545455L379.52702702702703,299.7608181818182L383.3046683046683,299.75427272727273L387.20823095823096,299.70709090909094L391.1117936117936,299.8129090909091L394.63759213759215,299.74636363636364L398.5411547911548,299.70245454545454L402.3187960687961,299.7278181818182L406.2223587223587,299.7163636363636L410,299.7886363636364" data-legend="wolfram-mathematica" style="stroke: rgb(255, 127, 14); fill: none;"></path><path class="line" d="M3.9035626535626538,297.7464545454545L7.681203931203931,295.98L11.584766584766585,297.68454545454546L15.362407862407862,297.12136363636364L19.265970515970515,296.79L23.16953316953317,295.8793636363636L26.695331695331696,296.84945454545453L30.598894348894348,295.97618181818183L34.37653562653563,295.62163636363636L38.28009828009828,295.8185454545455L42.05773955773956,296.7670909090909L45.96130221130221,297.2031818181818L49.86486486486487,295.83954545454543L53.64250614250615,294.7328181818182L57.546068796068795,291.7497272727273L61.323710073710075,292.8L65.22727272727272,294.4191818181818L69.13083538083539,293.3255454545455L72.65663390663391,293.65090909090907L76.56019656019656,289.93281818181816L80.33783783783784,289.22345454545456L84.2414004914005,292.905L88.01904176904176,293.27454545454543L91.92260442260442,294.04145454545454L95.82616707616708,292.665L99.60380835380836,293.04518181818185L103.50737100737102,293.90618181818184L107.2850122850123,293.0937272727273L111.18857493857494,294.0523636363636L115.09213759213759,290.5279090909091L118.61793611793611,288.55227272727274L122.52149877149877,289.2049090909091L126.29914004914005,291.8064545454545L130.20270270270268,291.55172727272725L133.98034398034397,292.39418181818183L137.88390663390663,293.5570909090909L141.7874692874693,293.0029090909091L145.5651105651106,289.3849090909091L149.46867321867322,289.3442727272727L153.2463144963145,289.8638181818182L157.14987714987714,289.341L161.0534398034398,287.96590909090907L164.7051597051597,288.44945454545456L168.60872235872236,287.09672727272726L172.38636363636365,289.2567272727273L176.28992628992629,289.2649090909091L180.06756756756758,289.4198181818182L183.9711302211302,288.6632727272727L187.87469287469287,288.7895454545455L191.65233415233416,286.52263636363637L195.5558968058968,284.5819090909091L199.3335380835381,286.6682727272727L203.23710073710072,287.64681818181816L207.1406633906634,285.816L210.66646191646188,284.5658181818182L214.5700245700246,283.4710909090909L218.34766584766584,283.563L222.25122850122852,284.721L226.02886977886976,284.9530909090909L229.93243243243245,285.63245454545455L233.8359950859951,285.4838181818182L237.61363636363637,283.78472727272725L241.51719901719903,281.61572727272727L245.2948402948403,282.81163636363635L249.19840294840296,284.1261818181818L253.10196560196562,282.30081818181816L256.6277641277641,281.5701818181818L260.5313267813268,280.40972727272725L264.3089680589681,280.8902727272727L268.21253071253074,283.01481818181816L271.99017199017203,283.1530909090909L275.89373464373466,284.8358181818182L279.7972972972973,282.68836363636365L283.5749385749386,280.8668181818182L287.4785012285012,280.07236363636366L291.2561425061425,282.60954545454547L295.15970515970514,283.6077272727273L299.0632678132678,280.989L302.58906633906633,280.39363636363635L306.492628992629,278.33590909090907L310.27027027027026,279.7690909090909L314.17383292383295,282.5080909090909L317.95147420147424,284.4861818181818L321.8550368550369,284.8172727272727L325.7585995085995,285.78409090909093L329.5362407862408,284.71090909090907L333.4398034398034,283.04045454545457L337.2174447174447,286.26354545454546L341.12100737100735,286.13154545454546L345.02457002457004,284.67463636363635L348.67628992628994,283.41436363636365L352.57985257985257,284.6980909090909L356.35749385749386,283.7680909090909L360.2610565110565,285.4194545454545L364.0386977886978,286.34754545454547L367.9422604422604,286.35845454545455L371.8458230958231,286.73672727272725L375.62346437346434,286.047L379.52702702702703,287.2129090909091L383.3046683046683,287.44281818181815L387.20823095823096,287.8598181818182L391.1117936117936,287.1537272727273L394.63759213759215,285.7532727272727L398.5411547911548,285.04581818181816L402.3187960687961,285.51218181818183L406.2223587223587,288.31336363636365L410,289.0600909090909" data-legend="matlab" style="stroke: rgb(44, 160, 44); fill: none;"></path><path class="line" d="M3.9035626535626538,298.87336363636365L7.681203931203931,300L11.584766584766585,299.78972727272725L15.362407862407862,299.77881818181817L19.265970515970515,298.6483636363636L23.16953316953317,298.62654545454546L26.695331695331696,299.475L30.598894348894348,298.4912727272727L34.37653562653563,299.79163636363637L38.28009828009828,299.5249090909091L42.05773955773956,295.77245454545454L45.96130221130221,296.13354545454547L49.86486486486487,288.66027272727274L53.64250614250615,294.58418181818183L57.546068796068795,293.42781818181817L61.323710073710075,294.297L65.22727272727272,294.2991818181818L69.13083538083539,292.6641818181818L72.65663390663391,292.77354545454546L76.56019656019656,291.38645454545457L80.33783783783784,292.79836363636366L84.2414004914005,291.40881818181816L88.01904176904176,289.60227272727275L91.92260442260442,288.04063636363634L95.82616707616708,289.63445454545456L99.60380835380836,290.93754545454544L103.50737100737102,290.589L107.2850122850123,291.35727272727274L111.18857493857494,291.5656363636364L115.09213759213759,289.59027272727275L118.61793611793611,288.76472727272727L122.52149877149877,286.6317272727273L126.29914004914005,288.57681818181817L130.20270270270268,287.9888181818182L133.98034398034397,287.92636363636365L137.88390663390663,285.34090909090907L141.7874692874693,283.93554545454543L145.5651105651106,283.5490909090909L149.46867321867322,285.0477272727273L153.2463144963145,284.112L157.14987714987714,284.0920909090909L161.0534398034398,282.4546363636364L164.7051597051597,282.2162727272727L168.60872235872236,282.3820909090909L172.38636363636365,282.4977272727273L176.28992628992629,280.1012727272727L180.06756756756758,278.85818181818183L183.9711302211302,279.2915454545454L187.87469287469287,278.4897272727273L191.65233415233416,277.23463636363635L195.5558968058968,275.63454545454545L199.3335380835381,275.9001818181818L203.23710073710072,274.36663636363636L207.1406633906634,270.94336363636364L210.66646191646188,271.6150909090909L214.5700245700246,271.3489090909091L218.34766584766584,271.2831818181818L222.25122850122852,269.9967272727273L226.02886977886976,270.102L229.93243243243245,269.7117272727273L233.8359950859951,272.19327272727276L237.61363636363637,269.3937272727273L241.51719901719903,266.69890909090907L245.2948402948403,269.10927272727275L249.19840294840296,266.5573636363636L253.10196560196562,262.71381818181817L256.6277641277641,263.61463636363635L260.5313267813268,262.27118181818184L264.3089680589681,260.67872727272726L268.21253071253074,260.54754545454546L271.99017199017203,260.08445454545455L275.89373464373466,259.41027272727274L279.7972972972973,261.654L283.5749385749386,256.88072727272726L287.4785012285012,256.3729090909091L291.2561425061425,259.302L295.15970515970514,256.2820909090909L299.0632678132678,252.6548181818182L302.58906633906633,249.4587272727273L306.492628992629,253.014L310.27027027027026,250.46509090909092L314.17383292383295,250.8919090909091L317.95147420147424,245.25736363636364L321.8550368550369,248.22272727272727L325.7585995085995,249.6662727272727L329.5362407862408,246.84545454545454L333.4398034398034,246.67936363636363L337.2174447174447,250.45227272727274L341.12100737100735,247.51472727272727L345.02457002457004,248.60372727272727L348.67628992628994,246.06627272727272L352.57985257985257,243.4639090909091L356.35749385749386,246.16036363636363L360.2610565110565,243.77072727272727L364.0386977886978,243.16227272727275L367.9422604422604,245.21072727272727L371.8458230958231,250.48445454545455L375.62346437346434,244.88018181818182L379.52702702702703,247.36227272727274L383.3046683046683,249.45245454545454L387.20823095823096,248.53363636363636L391.1117936117936,245.40627272727272L394.63759213759215,240.14045454545453L398.5411547911548,238.215L402.3187960687961,239.88354545454547L406.2223587223587,235.09118181818184L410,234.55963636363637" data-legend="r" style="stroke: rgb(214, 39, 40); fill: none;"></path><path class="line" d="M3.9035626535626538,84.7780909090909L7.681203931203931,89.12754545454544L11.584766584766585,96.65454545454543L15.362407862407862,113.54645454545454L19.265970515970515,103.84336363636365L23.16953316953317,114.72272727272727L26.695331695331696,109.91154545454546L30.598894348894348,105.97636363636366L34.37653562653563,109.22345454545456L38.28009828009828,98.1488181818182L42.05773955773956,110.49463636363637L45.96130221130221,119.01545454545453L49.86486486486487,114.72845454545455L53.64250614250615,113.1913636363636L57.546068796068795,105.9739090909091L61.323710073710075,107.66454545454545L65.22727272727272,75.50290909090907L69.13083538083539,83.52600000000001L72.65663390663391,69.62590909090909L76.56019656019656,89.66318181818181L80.33783783783784,82.39445454545458L84.2414004914005,91.97345454545453L88.01904176904176,99.07636363636365L91.92260442260442,99.56236363636361L95.82616707616708,91.19318181818181L99.60380835380836,86.37736363636361L103.50737100737102,82.62054545454546L107.2850122850123,79.18390909090908L111.18857493857494,78.01718181818183L115.09213759213759,75.8012727272727L118.61793611793611,72.68754545454544L122.52149877149877,77.04600000000002L126.29914004914005,68.99972727272726L130.20270270270268,84.14727272727274L133.98034398034397,80.96945454545454L137.88390663390663,80.93536363636363L141.7874692874693,79.70918181818186L145.5651105651106,72.40609090909092L149.46867321867322,61.324909090909074L153.2463144963145,60.516818181818195L157.14987714987714,64.23436363636361L161.0534398034398,61.07890909090915L164.7051597051597,49.87009090909089L168.60872235872236,48.1579090909091L172.38636363636365,55.59981818181819L176.28992628992629,70.76645454545454L180.06756756756758,67.47463636363634L183.9711302211302,66.55663636363636L187.87469287469287,62.77827272727271L191.65233415233416,56.853818181818184L195.5558968058968,51.98890909090906L199.3335380835381,51.93899999999999L203.23710073710072,65.18563636363638L207.1406633906634,58.28509090909091L210.66646191646188,53.05254545454545L214.5700245700246,44.644363636363636L218.34766584766584,52.19563636363637L222.25122850122852,62.157545454545414L226.02886977886976,68.64027272727273L229.93243243243245,61.77109090909093L233.8359950859951,34.964999999999975L237.61363636363637,25.527272727272702L241.51719901719903,12.951818181818169L245.2948402948403,14.800909090909101L249.19840294840296,33.58718181818176L253.10196560196562,23.170909090909106L256.6277641277641,14.547272727272741L260.5313267813268,10.377272727272725L264.3089680589681,24.992727272727222L268.21253071253074,35.84236363636364L271.99017199017203,35.58818181818185L275.89373464373466,40.971000000000004L279.7972972972973,28.192090909090837L283.5749385749386,20.519999999999982L287.4785012285012,10.800000000000011L291.2561425061425,15.302727272727225L295.15970515970514,30.835636363636354L299.0632678132678,31.2289090909091L302.58906633906633,19.00090909090909L306.492628992629,18.7172727272727L310.27027027027026,29.994818181818175L314.17383292383295,43.389272727272726L317.95147420147424,41.64954545454549L321.8550368550369,45.501000000000005L325.7585995085995,42.476454545454544L329.5362407862408,31.53463636363631L333.4398034398034,30.264818181818214L337.2174447174447,40.596545454545435L341.12100737100735,51.75027272727277L345.02457002457004,43.839272727272714L348.67628992628994,33.56890909090913L352.57985257985257,31.99745454545456L356.35749385749386,56.53418181818185L360.2610565110565,66.36354545454546L364.0386977886978,71.44418181818179L367.9422604422604,75.06027272727272L371.8458230958231,72.80127272727276L375.62346437346434,68.17745454545454L379.52702702702703,62.47772727272729L383.3046683046683,73.12881818181819L387.20823095823096,81.19418181818182L391.1117936117936,80.27454545454543L394.63759213759215,71.38254545454544L398.5411547911548,63.63190909090912L402.3187960687961,66.63518181818179L406.2223587223587,82.18363636363634L410,87.95918181818183" data-legend="java" style="stroke: rgb(148, 103, 189); fill: none;"></path><path class="line" d="M3.9035626535626538,197.4597272727273L7.681203931203931,206.07600000000002L11.584766584766585,204.43200000000002L15.362407862407862,201.6801818181818L19.265970515970515,192.88254545454546L23.16953316953317,203.39345454545455L26.695331695331696,199.17954545454546L30.598894348894348,203.30263636363634L34.37653562653563,195.64636363636365L38.28009828009828,200.69018181818183L42.05773955773956,202.92627272727273L45.96130221130221,205.8880909090909L49.86486486486487,204.3049090909091L53.64250614250615,194.05772727272728L57.546068796068795,190.22672727272732L61.323710073710075,186.438L65.22727272727272,182.56063636363635L69.13083538083539,187.37345454545454L72.65663390663391,192.68481818181817L76.56019656019656,201.9649090909091L80.33783783783784,195.135L84.2414004914005,192.70472727272727L88.01904176904176,184.20681818181816L91.92260442260442,194.055L95.82616707616708,200.5159090909091L99.60380835380836,186.73963636363635L103.50737100737102,198.6387272727273L107.2850122850123,203.46300000000002L111.18857493857494,201.87872727272725L115.09213759213759,201.88281818181818L118.61793611793611,199.73072727272728L122.52149877149877,205.91863636363635L126.29914004914005,205.3579090909091L130.20270270270268,205.71790909090907L133.98034398034397,201.7341818181818L137.88390663390663,203.72836363636364L141.7874692874693,207.5179090909091L145.5651105651106,203.67081818181816L149.46867321867322,204.29427272727273L153.2463144963145,205.98654545454548L157.14987714987714,202.4569090909091L161.0534398034398,202.67045454545453L164.7051597051597,198.93245454545453L168.60872235872236,197.45590909090907L172.38636363636365,198.09736363636364L176.28992628992629,191.77118181818182L180.06756756756758,191.64463636363635L183.9711302211302,188.6727272727273L187.87469287469287,192.91336363636364L191.65233415233416,189.8989090909091L195.5558968058968,183.8301818181818L199.3335380835381,185.71200000000002L203.23710073710072,188.12918181818182L207.1406633906634,182.5336363636364L210.66646191646188,182.40736363636364L214.5700245700246,176.19545454545454L218.34766584766584,173.9552727272727L222.25122850122852,171.22909090909093L226.02886977886976,169.356L229.93243243243245,174.73690909090908L233.8359950859951,170.70845454545454L237.61363636363637,161.64872727272729L241.51719901719903,155.13490909090908L245.2948402948403,162.41154545454546L249.19840294840296,160.0429090909091L253.10196560196562,158.54809090909094L256.6277641277641,152.43163636363636L260.5313267813268,151.15336363636365L264.3089680589681,158.88081818181817L268.21253071253074,153.02236363636365L271.99017199017203,149.53445454545457L275.89373464373466,150.37800000000001L279.7972972972973,157.7828181818182L283.5749385749386,150.75381818181816L287.4785012285012,145.33936363636363L291.2561425061425,143.3989090909091L295.15970515970514,142.90036363636364L299.0632678132678,136.92354545454546L302.58906633906633,135.41700000000003L306.492628992629,137.54645454545457L310.27027027027026,137.30372727272726L314.17383292383295,130.8351818181818L317.95147420147424,130.0718181818182L321.8550368550369,133.2400909090909L325.7585995085995,133.8970909090909L329.5362407862408,119.44854545454544L333.4398034398034,114.02890909090911L337.2174447174447,118.56136363636364L341.12100737100735,116.30836363636365L345.02457002457004,110.73109090909088L348.67628992628994,112.08409090909089L352.57985257985257,112.89518181818181L356.35749385749386,113.85900000000001L360.2610565110565,111.46227272727273L364.0386977886978,104.52954545454546L367.9422604422604,111.97200000000001L371.8458230958231,114.51763636363634L375.62346437346434,102.07472727272727L379.52702702702703,90.97690909090909L383.3046683046683,92.86172727272728L387.20823095823096,91.82863636363638L391.1117936117936,80.74254545454545L394.63759213759215,80.63427272727273L398.5411547911548,74.37818181818184L402.3187960687961,76.91645454545457L406.2223587223587,68.39427272727272L410,59.37081818181818" data-legend="python" style="stroke: rgb(140, 86, 75); fill: none;"></path></g></g><g transform="translate(20, 150)"><text transform="rotate(-90)" x="-50" y="0" dy="1em" class="axis-label y-axis-label" style="text-anchor: middle; font-weight: bold;">% of Stack Overflow questions that month</text></g><g class="legend" transform="translate(530, 30)" style="font-size: 12px;"><text class="legend-title" style="font-weight: bold;">Tag</text><g class="legend-items" transform="translate(0,20)"><text y="0em" x="1em">java</text><text y="1em" x="1em">python</text><text y="2em" x="1em">r</text><text y="3em" x="1em">matlab</text><text y="4em" x="1em">wolfram-mathematica</text><text y="5em" x="1em">octave</text><circle cy="-0.25em" cx="0" r="0.4em" style="fill: rgb(148, 103, 189);"></circle><circle cy="0.75em" cx="0" r="0.4em" style="fill: rgb(140, 86, 75);"></circle><circle cy="1.75em" cx="0" r="0.4em" style="fill: rgb(214, 39, 40);"></circle><circle cy="2.75em" cx="0" r="0.4em" style="fill: rgb(44, 160, 44);"></circle><circle cy="3.75em" cx="0" r="0.4em" style="fill: rgb(255, 127, 14);"></circle><circle cy="4.75em" cx="0" r="0.4em" style="fill: rgb(31, 119, 180);"></circle></g><rect class="legend-box"></rect></g></svg>
            