
                <svg id="trend-chart" width="660" height="400" title="Stack Overflow Trends Chart" version="1.1" xmlns="http://www.w3.org/2000/svg"><g></g><g class="chart-area" transform="translate(100, 20)"><g transform="translate(0,300)" fill="none" font-size="10" font-family="sans-serif" text-anchor="middle"><path class="domain" stroke="#000" d="M0.5,6V0.5H410.5V6"></path><g class="tick" opacity="1" transform="translate(19.265970515970515,0)"><line stroke="#000" y2="6" x1="0.5" x2="0.5"></line><text fill="#000" y="9" x="0.5" dy="0.71em" style="font-size: 12px;">2009</text></g><g class="tick" opacity="1" transform="translate(65.22727272727272,0)"><line stroke="#000" y2="6" x1="0.5" x2="0.5"></line><text fill="#000" y="9" x="0.5" dy="0.71em" style="font-size: 12px;">2010</text></g><g class="tick" opacity="1" transform="translate(111.18857493857494,0)"><line stroke="#000" y2="6" x1="0.5" x2="0.5"></line><text fill="#000" y="9" x="0.5" dy="0.71em" style="font-size: 12px;">2011</text></g><g class="tick" opacity="1" transform="translate(157.14987714987714,0)"><line stroke="#000" y2="6" x1="0.5" x2="0.5"></line><text fill="#000" y="9" x="0.5" dy="0.71em" style="font-size: 12px;">2012</text></g><g class="tick" opacity="1" transform="translate(203.23710073710072,0)"><line stroke="#000" y2="6" x1="0.5" x2="0.5"></line><text fill="#000" y="9" x="0.5" dy="0.71em" style="font-size: 12px;">2013</text></g><g class="tick" opacity="1" transform="translate(249.19840294840296,0)"><line stroke="#000" y2="6" x1="0.5" x2="0.5"></line><text fill="#000" y="9" x="0.5" dy="0.71em" style="font-size: 12px;">2014</text></g><g class="tick" opacity="1" transform="translate(295.15970515970514,0)"><line stroke="#000" y2="6" x1="0.5" x2="0.5"></line><text fill="#000" y="9" x="0.5" dy="0.71em" style="font-size: 12px;">2015</text></g><g class="tick" opacity="1" transform="translate(341.12100737100735,0)"><line stroke="#000" y2="6" x1="0.5" x2="0.5"></line><text fill="#000" y="9" x="0.5" dy="0.71em" style="font-size: 12px;">2016</text></g><g class="tick" opacity="1" transform="translate(387.20823095823096,0)"><line stroke="#000" y2="6" x1="0.5" x2="0.5"></line><text fill="#000" y="9" x="0.5" dy="0.71em" style="font-size: 12px;">2017</text></g></g><g class="grid-lines" transform="translate(0,300)" fill="none" font-size="10" font-family="sans-serif" text-anchor="middle"><path class="domain" stroke="#000" d="M0.5,-300V0.5H410.5V-300"></path><g class="tick" opacity="1" transform="translate(19.265970515970515,0)"><line stroke="#000" y2="-300" x1="0.5" x2="0.5" style="stroke: #ccc; fill: none;"></line></g><g class="tick" opacity="1" transform="translate(65.22727272727272,0)"><line stroke="#000" y2="-300" x1="0.5" x2="0.5" style="stroke: #ccc; fill: none;"></line></g><g class="tick" opacity="1" transform="translate(111.18857493857494,0)"><line stroke="#000" y2="-300" x1="0.5" x2="0.5" style="stroke: #ccc; fill: none;"></line></g><g class="tick" opacity="1" transform="translate(157.14987714987714,0)"><line stroke="#000" y2="-300" x1="0.5" x2="0.5" style="stroke: #ccc; fill: none;"></line></g><g class="tick" opacity="1" transform="translate(203.23710073710072,0)"><line stroke="#000" y2="-300" x1="0.5" x2="0.5" style="stroke: #ccc; fill: none;"></line></g><g class="tick" opacity="1" transform="translate(249.19840294840296,0)"><line stroke="#000" y2="-300" x1="0.5" x2="0.5" style="stroke: #ccc; fill: none;"></line></g><g class="tick" opacity="1" transform="translate(295.15970515970514,0)"><line stroke="#000" y2="-300" x1="0.5" x2="0.5" style="stroke: #ccc; fill: none;"></line></g><g class="tick" opacity="1" transform="translate(341.12100737100735,0)"><line stroke="#000" y2="-300" x1="0.5" x2="0.5" style="stroke: #ccc; fill: none;"></line></g><g class="tick" opacity="1" transform="translate(387.20823095823096,0)"><line stroke="#000" y2="-300" x1="0.5" x2="0.5" style="stroke: #ccc; fill: none;"></line></g></g><text x="205" y="360" class="axis-label x-axis-label" style="text-anchor: middle; font-weight: bold;">Year</text><g fill="none" font-size="10" font-family="sans-serif" text-anchor="end"><path class="domain" stroke="#000" d="M-6,300.5H0.5V0.5H-6"></path><g class="tick" opacity="1" transform="translate(0,300)"><line stroke="#000" x2="-6" y1="0.5" y2="0.5"></line><text fill="#000" x="-9" y="0.5" dy="0.32em" style="font-size: 12px;">0.00%</text></g><g class="tick" opacity="1" transform="translate(0,270)"><line stroke="#000" x2="-6" y1="0.5" y2="0.5"></line><text fill="#000" x="-9" y="0.5" dy="0.32em" style="font-size: 12px;">0.01%</text></g><g class="tick" opacity="1" transform="translate(0,240)"><line stroke="#000" x2="-6" y1="0.5" y2="0.5"></line><text fill="#000" x="-9" y="0.5" dy="0.32em" style="font-size: 12px;">0.02%</text></g><g class="tick" opacity="1" transform="translate(0,210)"><line stroke="#000" x2="-6" y1="0.5" y2="0.5"></line><text fill="#000" x="-9" y="0.5" dy="0.32em" style="font-size: 12px;">0.03%</text></g><g class="tick" opacity="1" transform="translate(0,180)"><line stroke="#000" x2="-6" y1="0.5" y2="0.5"></line><text fill="#000" x="-9" y="0.5" dy="0.32em" style="font-size: 12px;">0.04%</text></g><g class="tick" opacity="1" transform="translate(0,150)"><line stroke="#000" x2="-6" y1="0.5" y2="0.5"></line><text fill="#000" x="-9" y="0.5" dy="0.32em" style="font-size: 12px;">0.05%</text></g><g class="tick" opacity="1" transform="translate(0,120)"><line stroke="#000" x2="-6" y1="0.5" y2="0.5"></line><text fill="#000" x="-9" y="0.5" dy="0.32em" style="font-size: 12px;">0.06%</text></g><g class="tick" opacity="1" transform="translate(0,90)"><line stroke="#000" x2="-6" y1="0.5" y2="0.5"></line><text fill="#000" x="-9" y="0.5" dy="0.32em" style="font-size: 12px;">0.07%</text></g><g class="tick" opacity="1" transform="translate(0,60)"><line stroke="#000" x2="-6" y1="0.5" y2="0.5"></line><text fill="#000" x="-9" y="0.5" dy="0.32em" style="font-size: 12px;">0.08%</text></g><g class="tick" opacity="1" transform="translate(0,30)"><line stroke="#000" x2="-6" y1="0.5" y2="0.5"></line><text fill="#000" x="-9" y="0.5" dy="0.32em" style="font-size: 12px;">0.09%</text></g><g class="tick" opacity="1" transform="translate(0,0)"><line stroke="#000" x2="-6" y1="0.5" y2="0.5"></line><text fill="#000" x="-9" y="0.5" dy="0.32em" style="font-size: 12px;">0.10%</text></g></g><g class="grid-lines" fill="none" font-size="10" font-family="sans-serif" text-anchor="end"><path class="domain" stroke="#000" d="M410,300.5H0.5V0.5H410"></path><g class="tick" opacity="1" transform="translate(0,300)"><line stroke="#000" x2="410" y1="0.5" y2="0.5" style="stroke: #ccc; fill: none;"></line></g><g class="tick" opacity="1" transform="translate(0,270)"><line stroke="#000" x2="410" y1="0.5" y2="0.5" style="stroke: #ccc; fill: none;"></line></g><g class="tick" opacity="1" transform="translate(0,240)"><line stroke="#000" x2="410" y1="0.5" y2="0.5" style="stroke: #ccc; fill: none;"></line></g><g class="tick" opacity="1" transform="translate(0,210)"><line stroke="#000" x2="410" y1="0.5" y2="0.5" style="stroke: #ccc; fill: none;"></line></g><g class="tick" opacity="1" transform="translate(0,180)"><line stroke="#000" x2="410" y1="0.5" y2="0.5" style="stroke: #ccc; fill: none;"></line></g><g class="tick" opacity="1" transform="translate(0,150)"><line stroke="#000" x2="410" y1="0.5" y2="0.5" style="stroke: #ccc; fill: none;"></line></g><g class="tick" opacity="1" transform="translate(0,120)"><line stroke="#000" x2="410" y1="0.5" y2="0.5" style="stroke: #ccc; fill: none;"></line></g><g class="tick" opacity="1" transform="translate(0,90)"><line stroke="#000" x2="410" y1="0.5" y2="0.5" style="stroke: #ccc; fill: none;"></line></g><g class="tick" opacity="1" transform="translate(0,60)"><line stroke="#000" x2="410" y1="0.5" y2="0.5" style="stroke: #ccc; fill: none;"></line></g><g class="tick" opacity="1" transform="translate(0,30)"><line stroke="#000" x2="410" y1="0.5" y2="0.5" style="stroke: #ccc; fill: none;"></line></g><g class="tick" opacity="1" transform="translate(0,0)"><line stroke="#000" x2="410" y1="0.5" y2="0.5" style="stroke: #ccc; fill: none;"></line></g></g><g class="lines"><path class="line" d="M3.9035626535626538,300L7.681203931203931,300L11.584766584766585,300L15.362407862407862,300L19.265970515970515,300L23.16953316953317,300L26.695331695331696,300L30.598894348894348,300L34.37653562653563,300L38.28009828009828,300L42.05773955773956,300L45.96130221130221,300L49.86486486486487,300L53.64250614250615,300L57.546068796068795,300L61.323710073710075,300L65.22727272727272,300L69.13083538083539,300L72.65663390663391,300L76.56019656019656,300L80.33783783783784,300L84.2414004914005,300L88.01904176904176,300L91.92260442260442,300L95.82616707616708,300L99.60380835380836,300L103.50737100737102,300L107.2850122850123,300L111.18857493857494,300L115.09213759213759,300L118.61793611793611,300L122.52149877149877,300L126.29914004914005,300L130.20270270270268,300L133.98034398034397,300L137.88390663390663,300L141.7874692874693,300L145.5651105651106,300L149.46867321867322,300L153.2463144963145,300L157.14987714987714,300L161.0534398034398,300L164.7051597051597,300L168.60872235872236,300L172.38636363636365,300L176.28992628992629,300L180.06756756756758,300L183.9711302211302,300L187.87469287469287,300L191.65233415233416,300L195.5558968058968,300L199.3335380835381,297.84L203.23710073710072,300L207.1406633906634,300L210.66646191646188,298.35L214.5700245700246,300L218.34766584766584,300L222.25122850122852,300L226.02886977886976,300L229.93243243243245,300L233.8359950859951,294.69L237.61363636363637,298.41L241.51719901719903,298.35L245.2948402948403,300L249.19840294840296,300L253.10196560196562,298.44L256.6277641277641,298.59L260.5313267813268,297L264.3089680589681,300L268.21253071253074,300L271.99017199017203,296.7L275.89373464373466,300L279.7972972972973,298.26L283.5749385749386,300L287.4785012285012,298.26L291.2561425061425,300L295.15970515970514,300L299.0632678132678,298.26L302.58906633906633,296.91L306.492628992629,300L310.27027027027026,300L314.17383292383295,300L317.95147420147424,300L321.8550368550369,296.79L325.7585995085995,300L329.5362407862408,296.88L333.4398034398034,298.38L337.2174447174447,240.45L341.12100737100735,189.89999999999998L345.02457002457004,155.25L348.67628992628994,148.83000000000004L352.57985257985257,151.05L356.35749385749386,134.60999999999999L360.2610565110565,133.29000000000002L364.0386977886978,147.69L367.9422604422604,125.28000000000003L371.8458230958231,140.76000000000002L375.62346437346434,121.35L379.52702702702703,109.92000000000002L383.3046683046683,124.94999999999999L387.20823095823096,90.39000000000001L391.1117936117936,70.61999999999998L394.63759213759215,58.920000000000016L398.5411547911548,20.880000000000052L402.3187960687961,34.620000000000005L406.2223587223587,64.47000000000003L410,33.06" data-legend="jupyter-notebook" style="stroke: rgb(31, 119, 180); fill: none;"></path><path class="line" d="M3.9035626535626538,300L7.681203931203931,300L11.584766584766585,300L15.362407862407862,300L19.265970515970515,300L23.16953316953317,300L26.695331695331696,300L30.598894348894348,300L34.37653562653563,300L38.28009828009828,300L42.05773955773956,300L45.96130221130221,300L49.86486486486487,300L53.64250614250615,300L57.546068796068795,300L61.323710073710075,300L65.22727272727272,300L69.13083538083539,300L72.65663390663391,300L76.56019656019656,300L80.33783783783784,300L84.2414004914005,300L88.01904176904176,300L91.92260442260442,300L95.82616707616708,300L99.60380835380836,300L103.50737100737102,300L107.2850122850123,300L111.18857493857494,300L115.09213759213759,300L118.61793611793611,300L122.52149877149877,300L126.29914004914005,300L130.20270270270268,300L133.98034398034397,300L137.88390663390663,300L141.7874692874693,300L145.5651105651106,300L149.46867321867322,300L153.2463144963145,300L157.14987714987714,300L161.0534398034398,300L164.7051597051597,300L168.60872235872236,297.75L172.38636363636365,297.84L176.28992628992629,300L180.06756756756758,300L183.9711302211302,300L187.87469287469287,297.78L191.65233415233416,292.17L195.5558968058968,288.09L199.3335380835381,276.15L203.23710073710072,270.36L207.1406633906634,264.03L210.66646191646188,271.53L214.5700245700246,269.4L218.34766584766584,254.28L222.25122850122852,255.63L226.02886977886976,243.63L229.93243243243245,251.7L233.8359950859951,220.17000000000002L237.61363636363637,233.13L241.51719901719903,240.06L245.2948402948403,232.56L249.19840294840296,231.66L253.10196560196562,218.82L256.6277641277641,232.29L260.5313267813268,236.73L264.3089680589681,225.3L268.21253071253074,253.23000000000002L271.99017199017203,228.93L275.89373464373466,221.19L279.7972972972973,220.59L283.5749385749386,225.45L287.4785012285012,222.66L291.2561425061425,249.09L295.15970515970514,215.25L299.0632678132678,211.05L302.58906633906633,184.05L306.492628992629,187.04999999999998L310.27027027027026,190.89L314.17383292383295,198.42000000000002L317.95147420147424,203.79000000000002L321.8550368550369,134.79000000000002L325.7585995085995,174.51000000000002L329.5362407862408,181.92000000000002L333.4398034398034,199.5L337.2174447174447,148.56L341.12100737100735,212.55L345.02457002457004,261.09L348.67628992628994,298.56L352.57985257985257,300L356.35749385749386,298.47L360.2610565110565,276.21L364.0386977886978,268.56L367.9422604422604,287.76L371.8458230958231,300L375.62346437346434,300L379.52702702702703,283.92L383.3046683046683,271.38L387.20823095823096,248.7L391.1117936117936,248.55L394.63759213759215,255.6L398.5411547911548,250.17000000000002L402.3187960687961,261.9L406.2223587223587,258.87L410,264.42" data-legend="ipython-notebook" style="stroke: rgb(255, 127, 14); fill: none;"></path><path class="line" d="M3.9035626535626538,258.69L7.681203931203931,300L11.584766584766585,300L15.362407862407862,226.95L19.265970515970515,281.43L23.16953316953317,283.23L26.695331695331696,271.14L30.598894348894348,300L34.37653562653563,300L38.28009828009828,300L42.05773955773956,272.67L45.96130221130221,290.97L49.86486486486487,228.21L53.64250614250615,259.2L57.546068796068795,253.86L61.323710073710075,260.82L65.22727272727272,240.6L69.13083538083539,273.57L72.65663390663391,237.57L76.56019656019656,270.42L80.33783783783784,271.53L84.2414004914005,289.41L88.01904176904176,285.42L91.92260442260442,286.08L95.82616707616708,290.34L99.60380835380836,281.46L103.50737100737102,261.84L107.2850122850123,266.07L111.18857493857494,288.93L115.09213759213759,292.89L118.61793611793611,264.96L122.52149877149877,260.01L126.29914004914005,261.84L130.20270270270268,270.33L133.98034398034397,273.69L137.88390663390663,275.28L141.7874692874693,259.65L145.5651105651106,230.31L149.46867321867322,194.67L153.2463144963145,237.6L157.14987714987714,226.59L161.0534398034398,264.48L164.7051597051597,256.2L168.60872235872236,245.43L172.38636363636365,208.44L176.28992628992629,255.12L180.06756756756758,269.07L183.9711302211302,241.83L187.87469287469287,197.61L191.65233415233416,239.22L195.5558968058968,65.39999999999998L199.3335380835381,226.26L203.23710073710072,248.1L207.1406633906634,254.58L210.66646191646188,232.98000000000002L214.5700245700246,243.89999999999998L218.34766584766584,208.56L222.25122850122852,239.01L226.02886977886976,230.37L229.93243243243245,248.25L233.8359950859951,246.78L237.61363636363637,244.26L241.51719901719903,230.04000000000002L245.2948402948403,216.57L249.19840294840296,228.54L253.10196560196562,228.21L256.6277641277641,254.88L260.5313267813268,230.7L264.3089680589681,212.01000000000002L268.21253071253074,213.63L271.99017199017203,205.8L275.89373464373466,221.19L279.7972972972973,224.13L283.5749385749386,198.32999999999998L287.4785012285012,224.43L291.2561425061425,205.67999999999998L295.15970515970514,225.84L299.0632678132678,226.76999999999998L302.58906633906633,228.9L306.492628992629,182.4L310.27027027027026,220.92000000000002L314.17383292383295,234.36L317.95147420147424,229.35000000000002L321.8550368550369,256.29L325.7585995085995,232.32L329.5362407862408,243.32999999999998L333.4398034398034,243.99L337.2174447174447,225.15L341.12100737100735,253.05L345.02457002457004,243.99L348.67628992628994,215.7L352.57985257985257,225.54000000000002L356.35749385749386,225.81L360.2610565110565,220.62L364.0386977886978,225.51L367.9422604422604,231.03L371.8458230958231,223.38L375.62346437346434,229.70999999999998L379.52702702702703,221.07L383.3046683046683,222.03000000000003L387.20823095823096,207.66L391.1117936117936,244.14L394.63759213759215,234.03L398.5411547911548,211.70999999999998L402.3187960687961,214.29L406.2223587223587,227.64000000000001L410,232.92" data-legend="octave" style="stroke: rgb(44, 160, 44); fill: none;"></path></g></g><g transform="translate(20, 150)"><text transform="rotate(-90)" x="-50" y="0" dy="1em" class="axis-label y-axis-label" style="text-anchor: middle; font-weight: bold;">% of Stack Overflow questions that month</text></g><g class="legend" transform="translate(530, 30)" style="font-size: 12px;"><text class="legend-title" style="font-weight: bold;">Tag</text><g class="legend-items" transform="translate(0,20)"><text y="0em" x="1em">jupyter-notebook</text><text y="1em" x="1em">octave</text><text y="2em" x="1em">ipython-notebook</text><circle cy="-0.25em" cx="0" r="0.4em" style="fill: rgb(31, 119, 180);"></circle><circle cy="0.75em" cx="0" r="0.4em" style="fill: rgb(44, 160, 44);"></circle><circle cy="1.75em" cx="0" r="0.4em" style="fill: rgb(255, 127, 14);"></circle></g><rect class="legend-box"></rect></g></svg>
            